<?xml version="1.0" encoding="UTF-8"?>
<svg id="Layer_2" data-name="Layer 2" xmlns="http://www.w3.org/2000/svg" viewBox="0 0 436.44 294.1">
  <defs>
    <style>
      .cls-1 {
        fill: #000c00;
      }
    </style>
  </defs>
  <g id="Layer_1-2" data-name="Layer 1">
    <g id="Layer_2-2" data-name="Layer 2">
      <g id="Layer_1-2" data-name="Layer 1-2">
        <polygon class="cls-1" points="205.36 110.03 138.93 0 72.4 110.03 138.89 85.89 205.36 110.03"/>
        <polygon class="cls-1" points="208.53 116.27 138.89 90.38 70.2 116.1 55.27 144.28 117.61 119.83 117.61 250.11 159.29 250.11 159.29 119.83 224.22 144.6 208.53 116.27"/>
        <polygon class="cls-1" points="295.38 250.11 327.99 250.11 327.99 149.39 294.88 149.39 295.38 250.11"/>
        <path class="cls-1" d="M382,184c-.72-38.83-40.24-34.58-40.24-34.58v25.68s6,.22,5.95,8.16c-.11,9.66-5.95,9.25-5.95,9.25v24.54s41,5.75,40.24-33.05Z"/>
        <path class="cls-1" d="M1.44,293.5c-1,0-1.44-.44-1.44-1.44v-4.68c0-1,.44-1.44,1.44-1.44h10.76c.55,0,1.01-.43,1.01-.99,0-.06,0-.12-.01-.17,0-.92-.36-1.28-1-1.36l-6-.84c-3.76-.58-6.2-2.16-6.2-6.64v-4.2c0-4.56,3.08-7,8.28-7h11.2c1,0,1.44.44,1.44,1.44v4.76c0,1-.44,1.44-1.44,1.44h-9.32c-.59-.02-1.07.45-1.09,1.03,0,.06,0,.11,0,.17-.06.65.42,1.22,1.07,1.28,0,0,0,0,0,0l6,.8c3.76.56,6.24,2.16,6.24,6.64v4.2c0,4.56-3.12,7-8.28,7H1.44Z"/>
        <path class="cls-1" d="M28.16,293.5c-1,0-1.44-.44-1.44-1.44v-25.92c0-1,.44-1.44,1.44-1.44h12.24c7.28,0,9.44,3.16,9.44,7.8v5.12c0,4.64-2.16,7.8-9.44,7.8h-4.6v6.64c0,1-.44,1.44-1.44,1.44h-6.2ZM35.72,278.22h3.6c1.56,0,1.88-.92,1.88-2v-2.12c0-1-.32-2-1.88-2h-3.6v6.12Z"/>
        <path class="cls-1" d="M66,294.1c-10,0-12.44-3.28-12.44-8.16v-13.64c0-4.88,2.44-8.2,12.44-8.2s12.4,3.32,12.4,8.2v13.64c0,4.88-2.4,8.16-12.4,8.16ZM66,286.38c2.92,0,3.36-.8,3.36-1.88v-10.76c0-1-.44-1.84-3.36-1.84s-3.36.8-3.36,1.84v10.76c0,1.08.48,1.88,3.36,1.88Z"/>
        <path class="cls-1" d="M84.92,293.5c-1,0-1.44-.44-1.44-1.44v-25.92c0-1,.44-1.44,1.44-1.44h13.32c6,0,7.88,2.72,7.88,6.68v1.84c0,2.24-.56,3.84-2.24,4.56,2.92.32,4.83,2.44,4.83,5.8v8.48c0,1-.44,1.44-1.43,1.44h-6.2c-1,0-1.44-.44-1.44-1.44v-6.12c0-1.2-.4-1.72-1.52-1.72h-5.6v7.84c0,1-.44,1.44-1.44,1.44h-6.16ZM92.52,277h3c1.4,0,1.76-.8,1.76-1.88v-1.36c0-1.08-.36-1.88-1.76-1.88h-3v5.12Z"/>
        <path class="cls-1" d="M119.12,293.5c-1,0-1.44-.44-1.44-1.44v-19.64h-5.88c-1,0-1.44-.44-1.44-1.44v-4.84c0-1,.44-1.44,1.44-1.44h21.12c1,0,1.43.44,1.43,1.44v4.86c0,1-.43,1.44-1.43,1.44h-5.92v19.64c0,1-.44,1.44-1.44,1.44l-6.44-.02Z"/>
        <path class="cls-1" d="M148.28,293.5c-1,0-1.44-.44-1.44-1.44v-25.92c0-1,.44-1.44,1.44-1.44h6.44c.81-.03,1.55.45,1.84,1.2l3.6,6.52c.28.48.4.68.72.68h.36c.32,0,.44-.2.72-.68l3.56-6.52c.29-.75,1.03-1.23,1.83-1.2h6.48c1,0,1.44.44,1.44,1.44v25.92c0,1-.44,1.44-1.44,1.44h-6.15c-1,0-1.44-.44-1.44-1.44v-14.06l-2.36,4.36c-.35.84-1.21,1.36-2.12,1.28h-1.6c-.91.08-1.77-.44-2.12-1.28l-2.36-4.36v14.08c0,1-.44,1.44-1.44,1.44l-5.96-.02Z"/>
        <path class="cls-1" d="M187.52,293.5h-5.88c-1,0-1.44-.44-1.44-1.44v-10.56c.13-2.21.66-4.38,1.56-6.4l3.48-9.08c.26-.86,1.1-1.42,2-1.32h10.76c.9-.11,1.74.45,2,1.32l3.47,9.08c.9,2.02,1.43,4.19,1.56,6.4v10.56c0,1-.44,1.44-1.44,1.44h-6c-1.08,0-1.56-.44-1.56-1.44v-5.6h-7.03v5.6c0,1-.48,1.44-1.48,1.44ZM189.36,279.18h6.28l-1.88-6.08c-.2-.48-.44-.68-.76-.68h-1c-.32,0-.56.2-.76.68l-1.88,6.08Z"/>
        <path class="cls-1" d="M211.44,293.5c-1,0-1.44-.44-1.44-1.44v-25.92c0-1,.44-1.44,1.44-1.44h4.16c.92-.06,1.81.34,2.36,1.08l7.76,8.88v-8.52c0-1,.43-1.44,1.43-1.44h6c1,0,1.44.44,1.44,1.44v25.92c0,1-.44,1.44-1.44,1.44h-6c-1,0-1.43-.44-1.43-1.44v-4.92l-6.84-8.28v13.2c0,1-.44,1.44-1.44,1.44h-6Z"/>
        <path class="cls-1" d="M246.84,293.5h-5.84c-1,0-1.44-.44-1.44-1.44v-10.56c.13-2.21.66-4.38,1.56-6.4l3.48-9.08c.26-.86,1.1-1.42,2-1.32h10.75c.9-.11,1.74.45,2,1.32l3.48,9.08c.9,2.02,1.43,4.19,1.56,6.4v10.56c0,1-.44,1.44-1.44,1.44h-6c-1.08,0-1.56-.44-1.56-1.44v-5.6h-7.07v5.6c-.04,1-.48,1.44-1.48,1.44ZM248.68,279.18h6.32l-1.87-6.08c-.2-.48-.44-.68-.77-.68h-1c-.32,0-.56.2-.76.68l-1.92,6.08Z"/>
        <path class="cls-1" d="M278.72,293.5c-6.72,0-9.84-2.6-9.84-8.16v-12.48c0-5.56,3.12-8.16,9.84-8.16h10c1,0,1.44.44,1.44,1.44v4.86c0,1-.44,1.44-1.44,1.44h-8.32c-1.68,0-2.44.64-2.44,2v9.56c0,1.36.6,2,1.84,2h3.88v-6.3c0-1,.43-1.44,1.43-1.44h6.2c1,0,1.44.44,1.44,1.44v12.36c0,1-.44,1.44-1.44,1.44h-12.59Z"/>
        <path class="cls-1" d="M299.08,293.5c-1,0-1.44-.44-1.44-1.44v-25.92c0-1,.44-1.44,1.44-1.44h18.55c1,0,1.44.44,1.44,1.44v4.68c0,1-.44,1.44-1.44,1.44h-11v3.08h7.79c1,0,1.44.44,1.44,1.44v4.28c0,1-.44,1.44-1.44,1.44h-7.82v3.44h11c1,0,1.44.44,1.44,1.44v4.68c0,1-.44,1.44-1.44,1.44h-18.52Z"/>
        <path class="cls-1" d="M325.24,293.5c-1,0-1.44-.44-1.44-1.44v-25.92c0-1,.44-1.44,1.44-1.44h6.44c.8-.03,1.54.45,1.83,1.2l3.6,6.52c.28.48.4.68.72.68h.36c.32,0,.44-.2.72-.68l3.56-6.52c.29-.75,1.03-1.23,1.84-1.2h6.48c1,0,1.44.44,1.44,1.44v25.92c0,1-.44,1.44-1.44,1.44h-6.16c-1,0-1.44-.44-1.44-1.44v-14.06l-2.36,4.36c-.35.84-1.21,1.36-2.12,1.28h-1.6c-.91.08-1.77-.44-2.12-1.28l-2.36-4.36v14.08c0,1-.44,1.44-1.44,1.44l-5.95-.02Z"/>
        <path class="cls-1" d="M359.2,293.5c-1,0-1.44-.44-1.44-1.44v-25.92c0-1,.44-1.44,1.44-1.44h18.55c1,0,1.44.44,1.44,1.44v4.68c0,1-.44,1.44-1.44,1.44h-11v3.08h7.8c1,0,1.44.44,1.44,1.44v4.28c0,1-.44,1.44-1.44,1.44h-7.8v3.44h11c1,0,1.44.44,1.44,1.44v4.68c0,1-.44,1.44-1.44,1.44h-18.55Z"/>
        <path class="cls-1" d="M385.35,293.5c-1,0-1.43-.44-1.43-1.44v-25.92c0-1,.43-1.44,1.43-1.44h4.16c.92-.06,1.81.34,2.36,1.08l7.76,8.88v-8.52c0-1,.44-1.44,1.44-1.44h6c1,0,1.44.44,1.44,1.44v25.92c0,1-.44,1.44-1.44,1.44h-6c-1,0-1.44-.44-1.44-1.44v-4.92l-6.84-8.28v13.2c0,1-.44,1.44-1.44,1.44h-6Z"/>
        <path class="cls-1" d="M421.15,293.5c-1,0-1.44-.44-1.44-1.44v-19.64h-5.88c-1,0-1.43-.44-1.43-1.44v-4.84c0-1,.43-1.44,1.43-1.44h21.17c1,0,1.44.44,1.44,1.44v4.86c0,1-.44,1.44-1.44,1.44h-5.88v19.64c0,1-.44,1.44-1.44,1.44l-6.53-.02Z"/>
        <path class="cls-1" d="M232.66,143.78c-2.41,0-4.83.17-7.22.48v31.47c2.47,0,4.61,0,7.14.05,12.16.36,22,9.36,22,21.17s-9.8,21.36-21.89,21.36c-2.53,0-4.55.1-7.22.05v31.27c2.39.32,4.81.48,7.22.48,30.08,0,54.46-23.8,54.46-53.16s-24.41-53.17-54.49-53.17Z"/>
        <path class="cls-1" d="M178.2,197c0,21.75,13.39,40.45,32.57,48.68v-97.42c-19.18,8.23-32.57,26.93-32.57,48.74Z"/>
      </g>
    </g>
  </g>
</svg>